<svg xmlns="http://www.w3.org/2000/svg" viewBox="0 0 203.57 203.57"><title>Varlık 1</title><g id="bb66ec42-791a-4fee-a8f0-d5a014369275" data-name="katman 2"><g id="b4d8ff07-5a2c-4718-ae8e-383548db33d7" data-name="katman 1"><path d="M203.57,101.56A101.79,101.79,0,1,1,101.56,0a101.78,101.78,0,0,1,102,101.56" style="fill:#fff"/><path d="M131.93,71.38c0,.52,0,1,0,1.55s-.06,1-.11,1.53c-.08.76-.18,1.51-.31,2.25s-.32,1.6-.53,2.39a28.7,28.7,0,0,1-1.52,4.38c-.08.2-.18.4-.27.6-.32.71-.67,1.39-1.05,2.07-.11.2-.23.4-.35.59a30,30,0,0,1-5.1,6.44l-.57.54c-.33.3-.67.59-1,.88s-.45.37-.69.55c-.51.4-1,.78-1.56,1.15l-.24.16c-.71.47-1.44.92-2.19,1.34s-1.37.72-2.08,1l-.12.05a30.35,30.35,0,0,1-4.37,1.58l-1,.25a29.77,29.77,0,0,1-4.66.73c-.51,0-1,.07-1.54.08h-1.55c-.52,0-1,0-1.54-.08a31.11,31.11,0,0,1-4.67-.71l-1-.25A28.69,28.69,0,0,1,89.57,99l-.13-.06c-.63-.29-1.26-.59-1.87-.92-.82-.45-1.63-.93-2.41-1.45l-.23-.15c-.54-.37-1.06-.75-1.58-1.15l-.68-.55q-.53-.42-1-.87c-.37-.34-.73-.68-1.08-1A30.51,30.51,0,0,1,76,86.86c-.12-.2-.24-.4-.35-.6-.38-.67-.73-1.35-1.06-2.05-.09-.2-.19-.4-.28-.61a30.54,30.54,0,0,1-1.54-4.37c-.21-.79-.39-1.58-.53-2.39s-.24-1.49-.32-2.25q-.08-.77-.12-1.53c0-.51,0-1,0-1.55s0-1,0-1.55c0-.31,0-.63,0-.94h0c0-.19.06-.39.07-.58s.06-.38.08-.57c.06-.56.15-1.12.25-1.68.14-.81.32-1.61.53-2.39a29.42,29.42,0,0,1,1.52-4.38l.13-.31.14-.3c.33-.7.68-1.39,1-2.06l.35-.6A30,30,0,0,1,81,49.71l.57-.54c.33-.3.67-.59,1-.88s.45-.37.68-.55c.51-.4,1-.79,1.57-1.15l.23-.16A29.71,29.71,0,0,1,89.32,44l.13-.06a29.76,29.76,0,0,1,4.36-1.57l1-.25a31.21,31.21,0,0,1,4.66-.74l1.54-.08h1.56c.51,0,1,0,1.54.07a31.18,31.18,0,0,1,4.66.72l1,.24a29.44,29.44,0,0,1,4.37,1.56l.13.06a29.18,29.18,0,0,1,4.28,2.37l.23.15c.54.37,1.07.75,1.58,1.15l.69.55c.34.28.68.57,1,.87l.57.53A30.4,30.4,0,0,1,127.69,56l.34.59c.38.67.74,1.36,1.07,2.06l.27.6a29.89,29.89,0,0,1,1.54,4.38c.21.78.39,1.58.54,2.39s.24,1.49.32,2.25l.06.71.06.82c0,.51,0,1,0,1.55" style="fill:#dc6929"/><path d="M152.31,130.26l.07,31.18c0,.64-.56.69-1.17.69l-98.38.22c-.61,0-1.38,0-1.38-.68l-.07-31.18c0-.51.08-1,.11-1.5a30.51,30.51,0,0,1,8-19.23l.44-.45a29.15,29.15,0,0,1,8-5.93l.55-.27c.83-.38,1.67-.73,2.54-1l.58-.2c.77-.26,1.56-.48,2.36-.67A40.33,40.33,0,0,0,77,103.85a41.72,41.72,0,0,0,8.8,5.25c.59.26,1.18.51,1.78.73a39.55,39.55,0,0,0,22.48,1.75,5.1,5.1,0,0,1,1-.24h1.5c1.3,0,2.58-1,3.85-1.5.5-.2,1-.66,1.5-.88a35.58,35.58,0,0,0,6.91-4.21h0a1.38,1.38,0,0,0,.71-.36,41.08,41.08,0,0,0,4.09-3.39c12.35,2.84,21.83,14.14,22.5,27.72,0,.5.17,1,.17,1.54" style="fill:#dc6929"/></g></g></svg>