<svg xmlns="http://www.w3.org/2000/svg" viewBox="0 0 72.7 78.78"><title>Varlık 5</title><g id="katman_2" data-name="katman 2"><g id="katman_1-2" data-name="katman 1"><path d="M20.69,52.65,15.27,29.82,6.32,31.94a8.22,8.22,0,0,0-6.1,9.89l1.63,6.85a8.22,8.22,0,0,0,9.89,6.1Z" style="fill:#fff"/><path d="M24.26,50.63a.45.45,0,0,0,.53.33c.56-.13,1.12-.23,1.67-.34s1.12-.24,1.68-.33,1-.16,1.49-.23l1.66-.24,1.49-.15c.55-.06,1.1-.12,1.65-.16l1.49-.07c.54,0,1.09-.06,1.63-.07s1,0,1.49,0h1.62l1.48.07c.53,0,1.07.05,1.6.09l1.47.14c.53,0,1.06.1,1.58.17s1,.14,1.46.21l1.56.24,1.45.28c.51.1,1,.2,1.54.32l1.42.35c.51.12,1,.25,1.52.39l1.4.41,1.49.46c.47.15.93.32,1.39.48s1,.34,1.46.53l1.35.54c.48.2,1,.39,1.43.6l1.33.61c.47.22.94.43,1.4.66l1.3.67,1.36.73,1.27.73c.6.35,1.19.69,1.78,1.06l-.25-1-4.75-20a9.4,9.4,0,0,0,1.62-1.33h0a9.83,9.83,0,0,0-5.9-16.67L58.72.27a.13.13,0,0,1,0,.06.44.44,0,0,0-.8-.12A63.15,63.15,0,0,1,19.37,28.12a.44.44,0,0,0-.33.53Z" style="fill:#fff"/><path d="M20.72,52.69v0l-9.15,2.18,7.09,22.69a1.77,1.77,0,0,0,1.71,1.25,13.67,13.67,0,0,0,1.77-.11,34.74,34.74,0,0,0,5.19-1.13l.32-.09.5-.12a3.56,3.56,0,0,0,2.12-1,2.31,2.31,0,0,0,.28-2.41Z" style="fill:#fff"/></g></g></svg>