<svg id="bf89b7ca-8f08-4543-b2b7-76c29922f826" data-name="Layer 1" xmlns="http://www.w3.org/2000/svg" viewBox="0 0 512 512"><title>Çalışma Yüzeyi 1</title><path d="M3.92,243.08c-.22.33-.42.67-.62,1s-.38.62-.55.94-.35.71-.52,1.06-.32.66-.46,1-.26.71-.39,1.06-.27.72-.38,1.09-.19.72-.28,1.09-.2.74-.27,1.12-.13.85-.2,1.28-.1.64-.14,1a23.57,23.57,0,0,0,0,4.6c0,.33.1.65.14,1s.11.85.2,1.27.18.75.27,1.13.17.72.28,1.08.25.73.38,1.09.25.71.39,1.06.31.67.46,1,.33.71.52,1.06.36.63.55.94.39.68.62,1,.49.68.74,1,.4.55.61.81a21,21,0,0,0,1.55,1.71L123.18,388.82a23.27,23.27,0,0,0,32.91-32.91L79.45,279.28H488.73a23.28,23.28,0,0,0,0-46.55H79.46l76.63-76.64a23.27,23.27,0,0,0-32.91-32.91L6.82,239.54a21,21,0,0,0-1.55,1.71c-.21.26-.4.54-.61.81S4.15,242.73,3.92,243.08Z" style="fill:#dc6929"/></svg>