<svg xmlns="http://www.w3.org/2000/svg" viewBox="0 0 39.07 28.32"><title>Varlık 1</title><g id="adf58547-412b-4c78-b55c-f415a7a680b8" data-name="katman 2"><g id="bed63b5d-faed-4c65-9091-01feeab2a5a0" data-name="katman 1"><path d="M39.07,11.44V24.91a3.3,3.3,0,0,1-3.3,3.41H3.32A3.32,3.32,0,0,1,0,24.91V11.44H17.32A10,10,0,0,0,16.48,13,7.37,7.37,0,0,0,16,15a7.46,7.46,0,0,0-.06.95,7.21,7.21,0,0,0,.1,1.23l0,.18s0,.07,0,.1a2.54,2.54,0,0,1,.09.54h0c0,.06.08.12.1.18s.06.12.08.18.15.32.23.5a3.46,3.46,0,0,0,.42.78h0a1,1,0,0,0,.23.42c.1.15.14.31.25.46a.21.21,0,0,1,.05.15h0c0,.05.27.1.27.14h0v.13h0a.8.8,0,0,1,.23.2c0,.05.18.09.18.14s.21.21.32.31l.21.18.14.11.14.11L19,22a7.45,7.45,0,0,0,.92.58l.08,0,.17.08.33.15a7.52,7.52,0,0,0,9.87-4,7.39,7.39,0,0,0,.6-2.93,7.54,7.54,0,0,0-.6-3,10.91,10.91,0,0,0-.83-1.52Z" style="fill:#dc6929"/><path d="M39.07,6.22v4.4H28.93a.28.28,0,0,1-.18-.1,7.51,7.51,0,0,0-5.33-2.15A7.4,7.4,0,0,0,20.49,9a7.24,7.24,0,0,0-2.39,1.53c-.07.06-.13.11-.18.11H0V6.22A3.24,3.24,0,0,1,3.18,2.86H35.92a3.22,3.22,0,0,1,3.15,3.36" style="fill:#dc6929"/><path d="M29,16c0,.14,0,.29,0,.43a5.67,5.67,0,0,1-4.16,5l-.21.05-.14,0-.13,0c-.21,0-.43.06-.64.08h-.37a5.65,5.65,0,0,1-5.64-5.23c0-.14,0-.29,0-.43s0-.28,0-.42a5.7,5.7,0,0,1,.63-2.21l0-.07c0-.07.12-.14.12-.21s.08-.13.12-.2l.09-.12a5.75,5.75,0,0,1,1.12-1.19,5.69,5.69,0,0,1,5.9-.73l.16.08a5.61,5.61,0,0,1,1,.65h0A5.45,5.45,0,0,1,28,12.72s0,.08.06.12a.5.5,0,0,1,.09.2c.27.07.11.14.15.21s0,0,.05.07A5.71,5.71,0,0,1,29,15.53c0,.14,0,.28,0,.42" style="fill:#dc6929"/><polygon points="15.71 0 7.11 0 2.81 4.22 20.01 4.22 15.71 0" style="fill:#dc6929"/></g></g></svg>