<svg xmlns="http://www.w3.org/2000/svg" viewBox="0 0 72.17 72.17"><title>Varlık 7</title><g id="katman_2" data-name="katman 2"><g id="katman_1-2" data-name="katman 1"><path d="M36.14,0a36.09,36.09,0,1,0,36,36.14A36.09,36.09,0,0,0,36.14,0m-.06,66.35A30.27,30.27,0,1,1,66.35,36.17,30.27,30.27,0,0,1,36.08,66.35" style="fill:#fff"/><path d="M34.16,30.42c.76,1.34,1,2.71,2.87,2.89a2.59,2.59,0,0,1,1.9,3.48c-.83,1.73.28,2.59,1,3.82L55.61,25.35c-.08-.14-.15-.28-.22-.43l-21.23,5.5" style="fill:#fff"/><path d="M35.18,38.87a2.6,2.6,0,0,1-2-3.45c.81-1.71-.22-2.61-1-3.89L16.53,46.84l.22.4L38,41.75c-.67-1.33-.88-2.7-2.78-2.88" style="fill:#fff"/><path d="M36.08,12.65a.77.77,0,0,0,.77-.76V9.71A.77.77,0,0,0,36.08,9a.76.76,0,0,0-.76.76v2.18a.76.76,0,0,0,.76.76" style="fill:#fff"/><path d="M53.68,19.69l1.54-1.54a.76.76,0,0,0-1.08-1.08L52.6,18.61a.76.76,0,0,0,1.08,1.08" style="fill:#fff"/><path d="M62.25,35.58H60.07a.76.76,0,0,0,0,1.52h2.18a.76.76,0,1,0,0-1.52" style="fill:#fff"/><path d="M53.35,52.86a.75.75,0,0,0-1.07,0,.76.76,0,0,0,0,1.08l1.54,1.54A.76.76,0,0,0,54.9,54.4Z" style="fill:#fff"/><path d="M35.62,59.57a.76.76,0,0,0-.76.76v2.18a.76.76,0,0,0,.76.76.77.77,0,0,0,.77-.76V60.33a.77.77,0,0,0-.77-.76" style="fill:#fff"/><path d="M18,52.53l-1.54,1.54a.76.76,0,0,0,0,1.08.75.75,0,0,0,1.07,0l1.54-1.54A.76.76,0,0,0,18,52.53" style="fill:#fff"/><path d="M11.63,35.12H9.46a.76.76,0,1,0,0,1.52h2.17a.76.76,0,1,0,0-1.52" style="fill:#fff"/><path d="M18.35,19.36a.76.76,0,0,0,1.08-1.08l-1.54-1.54a.78.78,0,0,0-1.08,0,.76.76,0,0,0,0,1.08Z" style="fill:#fff"/></g></g></svg>