<svg xmlns="http://www.w3.org/2000/svg" viewBox="0 0 75.49 68.87"><title>Varlık 8</title><g id="katman_2" data-name="katman 2"><g id="katman_1-2" data-name="katman 1"><path d="M0,34.45a27.21,27.21,0,0,1,1.84-2.14Q8.9,25.5,16,18.74L26.91,8.38c2.41-2.29,4.79-4.62,7.22-6.89a5.14,5.14,0,0,1,7.27,0c3.67,3.48,7.31,7,11,10.49l.34.26c0-.33.05-.57.05-.8,0-3,0-6,0-9,0-1.71.46-2.24,1.93-2.25h8.14c1.39,0,1.89.57,1.89,2.17q0,10.34,0,20.67a1.61,1.61,0,0,0,.52,1.29q4.65,4.38,9.27,8.81a9.73,9.73,0,0,1,1,1.34v1c-1,1.38-2,2.78-2.95,4.15-.86,1.19-1.63,1.3-2.68.3-2.82-2.67-5.61-5.37-8.41-8L54,24.76l-7.63-7.3c-2.74-2.62-5.49-5.24-8.22-7.88a.53.53,0,0,0-.88,0q-3.75,3.63-7.52,7.22L22.29,24l-7.54,7.2-8.42,8c-.32.31-.63.64-1,.92a1.32,1.32,0,0,1-2.14-.25c-1.1-1.46-2.14-3-3.21-4.45Z" style="fill:#fff"/><path d="M43.74,68.81V48.29l-.66,0c-3.56,0-7.11,0-10.67,0-.53,0-.68.16-.68.77q0,9.43,0,18.87v1H14.15c-2.17,0-3.36-1.36-3.36-3.84q0-12.42,0-24.82a1.64,1.64,0,0,1,.61-1.38c4.16-3.91,8.3-7.85,12.45-11.77l11-10.34,2.93-2.8L42.09,18l12.6,11.89q4.83,4.56,9.65,9.15a1.37,1.37,0,0,1,.35.87q0,12.72,0,25.44c0,2-1.24,3.47-3,3.47-5.87,0-11.74,0-17.61,0a3.05,3.05,0,0,1-.35,0" style="fill:#fff"/></g></g></svg>