<svg xmlns="http://www.w3.org/2000/svg" viewBox="0 0 883.06 883.06"><title>Object</title><g id="ab02f17f-3316-4dfb-9582-e3cac4a04754" data-name="katman 2"><g id="e763ffec-2b1d-44fb-bb28-cc1f4b520d29" data-name="Object"><path d="M136.8,555.48V323.26h46.44a54.4,54.4,0,0,1,33.15,10.93q12.65,9.26,18.05,28.7a90.6,90.6,0,0,1,3,24.63q0,23.34-11,37.41A31.59,31.59,0,0,1,215.57,434q10.34,4.46,17.56,17.6,4.76,8.88,7.06,23a103.69,103.69,0,0,1,1.15,16.11q0,22-7.39,37.41a48,48,0,0,1-16.24,19.26q-11.82,8.14-23.47,8.14Zm33.48-137.4h13q14.44,0,19.37-15.93a51,51,0,0,0,1.8-14.63q0-14.44-6.23-21.85a18.57,18.57,0,0,0-14.94-6.85h-13Zm0,102.78h13q15.76,0,21.83-18.34a45,45,0,0,0,2.13-14.44q0-19.45-6.56-28.34-5.91-8.14-17.4-8.14h-13Z" style="fill:#f35724"/><path d="M317.12,323.45q25.92,0,38.07,16.11,10.67,14.07,10.67,39.26v33.7q0,24.63-16.58,41.67l23,101.29H338.71l-18.8-87.4H299.23v87.4h-31v-232Zm18.54,55.92q0-20.17-17.72-20.18H299.23v74.26h18.71a16.06,16.06,0,0,0,12.55-5.93,20.93,20.93,0,0,0,5.17-14.26Z" style="fill:#f35724"/><path d="M436.89,502.15l-7.54,53.33H397.06l34.95-232h42.67l34.46,232H476.53l-7.26-53.33ZM453.18,376.6l-11.49,91.48h23Z" style="fill:#f35724"/><path d="M569.92,323.26l41.16,156.07V323.26h31V555.48H608.78l-42.67-148.7v148.7h-31V323.26Z" style="fill:#f35724"/><path d="M767.14,499.93q0,23-14.27,39.26T718.4,555.48H669.66V323.26H718.4q20.36,0,34.55,16.3t14.19,39.07Zm-66.46,20.93h18.71a15.74,15.74,0,0,0,12.47-6A21.27,21.27,0,0,0,737,500.67V379.19a21,21,0,0,0-5.17-14.26A15.92,15.92,0,0,0,719.39,359H700.68Z" style="fill:#f35724"/><path d="M218.86,181.15,228,191.74,224.18,195l-21.45-25,3.76-3.24,9.12,10.62,4.54-3.91L211,162.84l3.78-3.24,21.45,25-3.77,3.24-9.09-10.6Z" style="fill:#f35724"/><path d="M251.16,173.23l-4,3-19.58-26.49,4-3Z" style="fill:#f35724"/><path d="M269.33,161.41A7.87,7.87,0,0,1,258.47,159l-9.61-15.2a7.88,7.88,0,0,1,8.4-11.9,7.64,7.64,0,0,1,4.91,3.49l2,3.17-4.36,2.76L257.76,138a2.86,2.86,0,0,0-5.21.89,2.88,2.88,0,0,0,.38,2.16l9.64,15.24a2.83,2.83,0,0,0,3.92.89,2.78,2.78,0,0,0,1.27-1.78,2.72,2.72,0,0,0-.36-2.15l-3.46-5.47-2.34,1.47-2.66-4.22,6.69-4.23,6.15,9.74a7.85,7.85,0,0,1-2.45,10.84Z" style="fill:#f35724"/><path d="M285.58,135.42,292,147.84l-4.42,2.27-15.06-29.3,4.41-2.27L283.3,131l5.33-2.74-6.4-12.44,4.42-2.27,15.07,29.3-4.42,2.27-6.39-12.42Z" style="fill:#f35724"/><path d="M350.18,116.13a7.72,7.72,0,0,1,.19,4.07,2.36,2.36,0,0,0,2,.15l1.41,4.41c-2.38.76-4.23.53-5.57-.68a7.47,7.47,0,0,1-3.16,1.94,7.88,7.88,0,0,1-9.91-5.12l-5.46-17.13a7.87,7.87,0,0,1,5.13-9.91,7.55,7.55,0,0,1,6,.52A7.63,7.63,0,0,1,344.72,99Zm-10.4-15.68a2.74,2.74,0,0,0-1.41-1.66,2.81,2.81,0,0,0-2.18-.18,2.77,2.77,0,0,0-1.67,1.4,2.74,2.74,0,0,0-.18,2.17l5.47,17.19a2.83,2.83,0,0,0,3.57,1.84,2.78,2.78,0,0,0,1.68-1.4,2.74,2.74,0,0,0,.19-2.17Z" style="fill:#f35724"/><path d="M373.26,118.35a7.79,7.79,0,0,1-9.38-5.93l-5.56-24.86,4.74-1.06,5.55,24.81a2.76,2.76,0,0,0,1.27,1.78,2.88,2.88,0,0,0,3.94-.89,2.73,2.73,0,0,0,.36-2.14l-5.55-24.81,5.05-1.13L379.25,109a7.47,7.47,0,0,1-1,5.94A7.73,7.73,0,0,1,373.26,118.35Z" style="fill:#f35724"/><path d="M398.69,105.68l-.21,7.66-5.13.67,1.28-33.39,6.77-.89,9.75,32-5.18.68L403.84,105Zm.28-18-.14,13.12,3.65-.48Z" style="fill:#f35724"/><path d="M438,110.07l-13.52.56-1.37-32.92,5-.2,1.16,28,8.56-.36Z" style="fill:#f35724"/><path d="M455.83,110.23l-5-.13.83-32.93,5,.13Z" style="fill:#f35724"/><path d="M477,83.54l-5.26-.48.45-5,15.45,1.42-.46,5L481.94,84l-2.55,27.83-4.95-.45Z" style="fill:#f35724"/><path d="M506.24,101.69l-3-20.06,5.37,1L510,94.93l5.76-11,5.4,1L511.13,102.6l-2.52,13.57-4.89-.91Z" style="fill:#f35724"/><path d="M552.43,127.72,563.87,96.8l7,2.58a9.43,9.43,0,0,1,4.45,3.3,7.26,7.26,0,0,1,1.3,4.82,11.91,11.91,0,0,1-.77,3.45,7.77,7.77,0,0,1-3.5,4.37,4.9,4.9,0,0,1-2.07.6,5.79,5.79,0,0,1,1.77,3.32,9.87,9.87,0,0,1-.07,3.45,13.1,13.1,0,0,1-.62,2.21,11,11,0,0,1-3,4.57,7.61,7.61,0,0,1-7.31,1.44Zm6.73-2.75,2,.72a3.52,3.52,0,0,0,4.18-1.23,5.59,5.59,0,0,0,1-1.8,6.3,6.3,0,0,0,.42-4.14,3.41,3.41,0,0,0-2.22-2l-1.95-.72Zm5.07-13.69,1.94.73a3.06,3.06,0,0,0,3.7-1.05,6.37,6.37,0,0,0,1-1.85,4.36,4.36,0,0,0,.14-3.25,3.16,3.16,0,0,0-1.91-1.75l-2-.71Z" style="fill:#f35724"/><path d="M601.9,112.49q3.75,1.79,4.51,4.7a8.36,8.36,0,0,1-.86,5.76l-2.07,4.32a7.71,7.71,0,0,1-5,4.18L595.64,146l-4.85-2.32,2.64-12.49L593,131l-2.58-1.24L585.08,141l-4.48-2.15,14.23-29.71Zm-.75,8.44c.82-1.73.38-3-1.32-3.81l-2.71-1.3-4.55,9.52,2.7,1.29a2.71,2.71,0,0,0,2.18.11,2.79,2.79,0,0,0,1.62-1.47Z" style="fill:#f35724"/><path d="M616.72,149.07l-4.93,5.87-4.44-2.66,21.74-25.38,5.86,3.52-12.19,31.09-4.49-2.68,2.9-7.09Zm11.4-13.95-8.25,10.19L623,147.2Z" style="fill:#f35724"/><path d="M657.86,145.64l-7.81,21.76,13.12-17.85,4,2.93-19.52,26.58-4.31-3.16,7-21.06-12.5,17-4-2.94,19.52-26.57Z" style="fill:#f35724"/><path d="M675.23,192.15a7.65,7.65,0,0,1-5.41,2.66,7.48,7.48,0,0,1-5.66-1.93l-5.85-5.17L680.16,163l5.85,5.17a7.44,7.44,0,0,1,2.61,5.4,7.62,7.62,0,0,1-2,5.67Zm-9.94-4.83,2.24,2a2.71,2.71,0,0,0,2.07.69,2.83,2.83,0,0,0,1.94-1L683,176.11a2.87,2.87,0,0,0-.2-4l-2.25-2Z" style="fill:#f35724"/><path d="M215.4,706l-9.05,10.63-3.78-3.23,21.36-25.07,3.78,3.22-9.07,10.65,4.57,3.88,9.07-10.64,3.78,3.22-21.37,25.08-3.78-3.23L220,709.9Z" style="fill:#f35724"/><path d="M231.6,736.64l-4-2.94,19.48-26.57,4,2.94Z" style="fill:#f35724"/><path d="M251.34,750.44a7.88,7.88,0,0,1-2.5-10.85l9.55-15.23a7.87,7.87,0,0,1,10.87-2.5,7.86,7.86,0,0,1,2.47,10.86l-2,3.18-4.37-2.73,2.05-3.28a2.77,2.77,0,0,0,.37-2.16,2.81,2.81,0,0,0-1.27-1.79,2.72,2.72,0,0,0-2.15-.35,2.76,2.76,0,0,0-1.78,1.27L253,742.15a2.84,2.84,0,0,0,.9,3.91,2.83,2.83,0,0,0,2.16.37,2.72,2.72,0,0,0,1.78-1.25l3.44-5.49-2.34-1.46,2.65-4.23,6.71,4.2L262.18,748a7.86,7.86,0,0,1-10.84,2.48Z" style="fill:#f35724"/><path d="M283.4,752.24l-6.35,12.44-4.42-2.26,15-29.35,4.42,2.26-6.35,12.46,5.34,2.72,6.35-12.46,4.43,2.26-15,29.35-4.42-2.26L288.74,755Z" style="fill:#f35724"/><path d="M345,784a7.8,7.8,0,0,1-2.19,3.45,2.36,2.36,0,0,0,1.58,1.29L343,793.16c-2.37-.75-3.76-2-4.16-3.77a7.45,7.45,0,0,1-3.71-.22,7.87,7.87,0,0,1-5.15-9.89l5.39-17.16A7.89,7.89,0,0,1,345.3,757a7.51,7.51,0,0,1,4.62,3.9,7.63,7.63,0,0,1,.51,6Zm.51-18.8a2.74,2.74,0,0,0-.2-2.17,2.81,2.81,0,0,0-1.68-1.4,2.77,2.77,0,0,0-2.17.19,2.72,2.72,0,0,0-1.39,1.67L334.7,780.7a2.71,2.71,0,0,0,.18,2.16,2.86,2.86,0,0,0,3.85,1.21,2.71,2.71,0,0,0,1.41-1.66Z" style="fill:#f35724"/><path d="M366.36,797.48a7.8,7.8,0,0,1-6-9.34l5.48-24.89,4.75,1-5.47,24.83a2.65,2.65,0,0,0,.38,2.14,2.85,2.85,0,0,0,5.19-.91l5.47-24.83,5.05,1.11-5.47,24.88a7.54,7.54,0,0,1-3.47,5A7.71,7.71,0,0,1,366.36,797.48Z" style="fill:#f35724"/><path d="M396.78,794.84l-2.16,7.36-5.13-.66,9.76-32,6.78.88,1.27,33.38-5.19-.67-.18-7.66Zm4.87-17.35-3.49,12.65,3.65.47Z" style="fill:#f35724"/><path d="M437.23,805.66l-13.52-.55L425,772.19l5,.2-1.14,28,8.56.35Z" style="fill:#f35724"/><path d="M457.17,805.51l-5,.13-.82-32.93,5-.13Z" style="fill:#f35724"/><path d="M475.55,776.43l-5.26.51-.48-5,15.44-1.48.48,5-5.24.51,2.67,27.82-4.94.47Z" style="fill:#f35724"/><path d="M507.91,786.36l-10.06-17.62,5.37-1,5.79,11,1.42-12.31,5.4-1-3,20.06L515.33,799l-4.89.92Z" style="fill:#f35724"/><path d="M564.63,785.88,553.15,755l7-2.59a9.52,9.52,0,0,1,5.52-.39,7.16,7.16,0,0,1,4.13,2.82,11.32,11.32,0,0,1,1.66,3.11,7.71,7.71,0,0,1,.2,5.59,4.78,4.78,0,0,1-1.18,1.81,5.77,5.77,0,0,1,3.51,1.37,9.49,9.49,0,0,1,2.19,2.66,12.22,12.22,0,0,1,1,2.08,11,11,0,0,1,.74,5.39,7,7,0,0,1-1.49,3.47,7.1,7.1,0,0,1-3.12,2.39Zm-1.77-20.15,1.95-.73a3,3,0,0,0,2.12-3.19,6.46,6.46,0,0,0-.45-2,4.34,4.34,0,0,0-2-2.56,3.09,3.09,0,0,0-2.58-.08l-1.94.72Zm5.08,13.68,1.95-.72a3.53,3.53,0,0,0,2.37-3.66,5.59,5.59,0,0,0-.4-2,6.26,6.26,0,0,0-2.38-3.41,3.43,3.43,0,0,0-3-.12l-1.94.73Z" style="fill:#f35724"/><path d="M588.49,740.44c2.5-1.2,4.66-1.38,6.49-.57a8.27,8.27,0,0,1,3.95,4.28l2.07,4.32a7.72,7.72,0,0,1,.17,6.48l9.54,11.37-4.85,2.33-8.08-9.89-.4.2-2.59,1.24,5.37,11.18-4.48,2.15-14.25-29.7Zm6.11,5.88a2.52,2.52,0,0,0-3.8-1.36l-2.7,1.3,4.57,9.5,2.69-1.29a2.86,2.86,0,0,0,1.32-3.82Z" style="fill:#f35724"/><path d="M626.65,748.86,629.5,756l-4.44,2.66-12.12-31.15,5.87-3.51,21.66,25.43L636,752.1l-4.89-5.9Zm-6.92-16.63,5.09,12.09,3.16-1.89Z" style="fill:#f35724"/><path d="M639.28,710.34l18.41,14L644.6,706.44l4-2.94,19.48,26.6-4.3,3.15-18-13,12.48,17-4,2.94-19.49-26.59Z" style="fill:#f35724"/><path d="M687.59,703.35a7.65,7.65,0,0,1,2,5.7,7.44,7.44,0,0,1-2.61,5.38l-5.85,5.17-21.81-24.74,5.86-5.15a7.42,7.42,0,0,1,5.68-1.93,7.65,7.65,0,0,1,5.38,2.65Zm-6,9.27,2.25-2a2.64,2.64,0,0,0,.93-2,2.86,2.86,0,0,0-.71-2l-11.41-12.94a2.76,2.76,0,0,0-2-1,2.64,2.64,0,0,0-2,.68l-2.24,2Z" style="fill:#f35724"/><polygon points="443.76 153.78 451.97 179.03 478.53 179.03 457.04 194.64 465.25 219.9 443.76 204.29 422.28 219.9 430.48 194.64 409 179.03 435.56 179.03 443.76 153.78" style="fill:#f35724"/><polygon points="443.76 652.99 451.97 678.24 478.53 678.24 457.04 693.85 465.25 719.11 443.76 703.5 422.28 719.11 430.48 693.85 409 678.24 435.56 678.24 443.76 652.99" style="fill:#f35724"/><path d="M441.53,883.06C198.07,883.06,0,685,0,441.53S198.07,0,441.53,0,883.06,198.07,883.06,441.53,685,883.06,441.53,883.06Zm0-866.31C207.3,16.75,16.74,207.3,16.74,441.53S207.3,866.32,441.53,866.32,866.31,675.76,866.31,441.53,675.75,16.75,441.53,16.75Z" style="fill:#f35724"/><path d="M441.53,844C219.61,844,39.07,663.45,39.07,441.53S219.61,39.07,441.53,39.07,844,219.61,844,441.53,663.44,844,441.53,844Zm0-794.86c-216.37,0-392.41,176-392.41,392.41s176,392.41,392.41,392.41,392.41-176,392.41-392.41S657.9,49.12,441.53,49.12Z" style="fill:#f35724"/><rect x="136.2" y="267.37" width="619.44" height="6.7" style="fill:#f35724"/><rect x="136.2" y="608.99" width="619.44" height="6.7" style="fill:#f35724"/></g></g></svg>