<svg id="ef2d0ba1-6b9c-4183-a981-e5bf5e820247" data-name="katman 1" xmlns="http://www.w3.org/2000/svg" xmlns:xlink="http://www.w3.org/1999/xlink" viewBox="0 0 1133.86 1133.86"><defs><clipPath id="ee9c83e4-c4b0-4471-bc2e-26e48120b538"><rect width="1133.86" height="1133.86" style="fill:none"/></clipPath><clipPath id="baf0311e-4eee-4384-be6b-29cb3147a736"><path d="M571.84,297.35a209.3,209.3,0,0,1,62.45,171.38h72.63a281.48,281.48,0,0,1-58.1,156.87l-26.14-26.15A253.19,253.19,0,0,0,666.25,505H628.48a210.34,210.34,0,0,1-55.19,97.32l77,78.43A336.19,336.19,0,0,0,744.68,431H670.6A249.17,249.17,0,0,0,621.22,298.8l24.69-24.69a228.06,228.06,0,0,1,55.2,119.1h39.21a330,330,0,0,0-90.05-174.3l-78.43,78.44" style="fill:none"/></clipPath><clipPath id="abe47636-6042-4d8c-a7c4-dda4113a5fc7"><path d="M701.88,829.25v.28c0,19.3,12.64,24.72,32.22,29.72,16.25,4.17,19.58,7,19.58,12.36v.28c0,5.7-5.27,9.17-14,9.17-11.12,0-20.28-4.59-29-11.81L698,884.39A61.87,61.87,0,0,0,739.24,900c21,0,35.69-10.84,35.69-30.14v-.28c0-16.95-11.1-24-30.83-29.17-16.81-4.3-21-6.39-21-12.78v-.27c0-4.73,4.3-8.48,12.5-8.48s16.67,3.61,25.28,9.59L772,812.3c-9.86-7.91-21.95-12.36-36.11-12.36-19.87,0-34,11.67-34,29.31" style="fill:none"/></clipPath><clipPath id="e2e998f4-3653-4c6a-a2de-ac1ac44a3e95"><rect x="792.3" y="824.11" width="21.11" height="74.45" style="fill:none"/></clipPath><clipPath id="e483029b-b47f-4bc1-a974-755798717dee"><path d="M854.39,834.67V824.11H833.28v74.45h21.11V857c0-10,5.14-15.14,13.19-15.14S880.36,847,880.36,857v41.53h21.11v-48.2c0-17.08-9.3-27.64-25.27-27.64-10.7,0-17,5.7-21.81,11.95" style="fill:none"/></clipPath><clipPath id="e025a883-62d5-48c6-8d27-c555a64e58da"><rect x="920.79" y="824.11" width="21.11" height="74.45" style="fill:none"/></clipPath><clipPath id="bcd021ff-72f1-4802-92b6-d444f68f2a28"><path d="M971.34,802c-3.88,3.89-6,9.86-6,18.05v4.72h-8.75v17.37h8.75v56.39h21.11V842.17h16.81V825H986.21V822c0-5.56,2.77-8.06,7.63-8.06a26.78,26.78,0,0,1,9.59,1.81v-17.5a46.69,46.69,0,0,0-15-2.09q-11.25,0-17.09,5.84" style="fill:none"/></clipPath></defs><title>Çalışma Yüzeyi 1</title><g style="clip-path:url(#ee9c83e4-c4b0-4471-bc2e-26e48120b538)"><path d="M446.93,449.85a29.05,29.05,0,1,1-29.05-29.05,29,29,0,0,1,29.05,29.05" style="fill:#fff"/><path d="M467.27,403.38a71.54,71.54,0,0,1,18.88,45c1.15,27.25-14.06,45.52-17.43,49.38l77,77c8.49-8.73,51.41-54.58,50.83-126.36-.56-69.92-42-114.39-50.83-123.46L521,349.64c8.64,9.2,34.43,39,39.21,85.69A148.16,148.16,0,0,1,542.79,521Q529,506.5,515.2,492a108.31,108.31,0,0,0-21.79-114.74l-26.14,26.15" style="fill:#fff"/></g><g style="clip-path:url(#baf0311e-4eee-4384-be6b-29cb3147a736)"><rect x="571.84" y="218.92" width="174.21" height="461.88" style="fill:#fff"/></g><g style="clip-path:url(#ee9c83e4-c4b0-4471-bc2e-26e48120b538)"><path d="M130.43,856.89V801.33h21.39v55c0,15.83,7.92,24,21,24s21-7.91,21-23.33v-55.7h21.39V856.2c0,29.44-16.53,43.89-42.65,43.89s-42.08-14.59-42.08-43.2" style="fill:#fff"/><polygon points="232.25 883.7 270.72 841.2 233.5 841.2 233.5 824.11 296.97 824.11 296.97 838.97 258.36 881.48 296.97 881.48 296.97 898.56 232.25 898.56 232.25 883.7" style="fill:#fff"/><path d="M308.5,877.17v-.28c0-16.25,12.37-23.75,30-23.75a52.77,52.77,0,0,1,18.19,3.06V855c0-8.75-5.42-13.62-16-13.62-8.06,0-13.75,1.53-20.56,4l-5.28-16.11c8.2-3.61,16.25-6,28.89-6,11.53,0,19.87,3.05,25.14,8.33,5.56,5.56,8.06,13.75,8.06,23.75v43.2H356.56V890.5c-5.14,5.7-12.22,9.45-22.5,9.45-14,0-25.56-8.06-25.56-22.78M357,872.31v-3.75a32.7,32.7,0,0,0-13.47-2.78c-9,0-14.59,3.61-14.59,10.28v.28c0,5.69,4.72,9,11.53,9,9.86,0,16.53-5.42,16.53-13.06" style="fill:#fff"/><polygon points="395.18 797.17 416.29 797.17 416.29 851.2 441.01 824.11 466.29 824.11 437.96 853.42 467.27 898.56 443.1 898.56 423.65 868.14 416.29 875.92 416.29 898.56 395.18 898.56 395.18 797.17" style="fill:#fff"/><path d="M479.49,877.45V842.17H470.6V824.11h8.89v-19h21.12v19h17.5v18.06h-17.5V874c0,4.87,2.08,7.23,6.8,7.23a21.46,21.46,0,0,0,10.42-2.64V895.5a31.15,31.15,0,0,1-16.67,4.31c-12.92,0-21.67-5.14-21.67-22.36" style="fill:#fff"/><path d="M529.22,877.17v-.28c0-16.25,12.36-23.75,30-23.75a52.83,52.83,0,0,1,18.2,3.06V855c0-8.75-5.42-13.62-16-13.62-8.05,0-13.75,1.53-20.55,4l-5.28-16.11c8.2-3.61,16.25-6,28.89-6,11.53,0,19.86,3.05,25.14,8.33,5.56,5.56,8.06,13.75,8.06,23.75v43.2H577.28V890.5c-5.14,5.7-12.22,9.45-22.5,9.45-14,0-25.56-8.06-25.56-22.78m48.47-4.86v-3.75a32.66,32.66,0,0,0-13.47-2.78c-9,0-14.58,3.61-14.58,10.28v.28c0,5.69,4.72,9,11.53,9,9.86,0,16.52-5.42,16.52-13.06" style="fill:#fff"/><path d="M615.9,824.11H637v10.56c4.86-6.25,11.11-11.95,21.8-11.95,16,0,25.28,10.56,25.28,27.64v48.2H663V857c0-10-4.72-15.14-12.78-15.14S637,847,637,857v41.53H615.9Z" style="fill:#fff"/></g><g style="clip-path:url(#abe47636-6042-4d8c-a7c4-dda4113a5fc7)"><rect x="681.79" y="789.03" width="109.34" height="121.83" transform="translate(-269.02 346.17) rotate(-22.48)" style="fill:#fff"/></g><g style="clip-path:url(#e2e998f4-3653-4c6a-a2de-ac1ac44a3e95)"><rect x="778.87" y="822.9" width="47.97" height="76.86" transform="translate(-268.33 372.42) rotate(-22.48)" style="fill:#fff"/></g><g style="clip-path:url(#e483029b-b47f-4bc1-a974-755798717dee)"><rect x="821.37" y="812.57" width="92.01" height="96.15" transform="translate(-263.16 397.04) rotate(-22.48)" style="fill:#fff"/></g><g style="clip-path:url(#e025a883-62d5-48c6-8d27-c555a64e58da)"><rect x="795.78" y="644.14" width="271.12" height="434.39" transform="translate(-258.57 421.55) rotate(-22.48)" style="fill:#fff"/></g><g style="clip-path:url(#bcd021ff-72f1-4802-92b6-d444f68f2a28)"><rect x="822.33" y="632.09" width="315.38" height="430.58" transform="translate(-249.53 439.1) rotate(-22.48)" style="fill:#fff"/></g></svg>