<svg xmlns="http://www.w3.org/2000/svg" viewBox="0 0 262.17 249"><title>Varlık 2</title><g id="b9417976-c991-4acc-852c-c91729acff9b" data-name="katman 2"><g id="a6fcad16-8bc7-42e7-8e63-41cf5e3419af" data-name="katman 1"><path d="M92,60.75c0,14.16-10.43,30.89-24.2,30.89-8.19,0-12.26-5.13-12.26-14.27,0-14.55,10-30.89,24-30.89C87.71,46.48,92,51.67,92,60.75m-8.37-.39c0-5.35-1.78-9.19-6.18-9.19-6.91,0-13.27,15.27-13.27,25.36,0,6.24,1.67,11.09,6.19,10.42C79,85.62,83.64,68.84,83.64,60.36M74.5,43.75A8.81,8.81,0,0,0,79,42.41a10.87,10.87,0,0,0,1-3.68c0-1.83-1.34-2.84-3.46-2.84a9.78,9.78,0,0,0-4.18,1.17c0,1-.67,1.95-.67,4.13,0,2,1.45,2.56,2.9,2.56m12,0A8.81,8.81,0,0,0,91,42.41a10.87,10.87,0,0,0,1-3.68c0-1.83-1.34-2.84-3.46-2.84a9.78,9.78,0,0,0-4.18,1.17c0,1-.67,1.95-.67,4.13,0,2,1.45,2.56,2.9,2.56" style="fill:#fff"/><path d="M115.75,60c1.73,0,2.35,1.06,2.35,2.68,0,2.56-1.62,5.41-3.85,7.92a2.53,2.53,0,0,0-2.12-1.4c-4.46,0-7.91,8.59-11.82,18.34-.78,2-1.78,3.07-4.57,3.07a25.74,25.74,0,0,1-4.35-.5c4.3-11,6.25-20.91,6.25-24.81A8.85,8.85,0,0,0,97,61.59,15.8,15.8,0,0,1,102.88,60a2.72,2.72,0,0,1,3,2.84c0,2.23-.83,5.47-1.78,9.2,4.18-7.36,8.08-12,11.43-12.1Z" style="fill:#fff"/><path d="M130.25,74.41c-2.73,4.41-3.57,6.58-6.19,13.1-.78,2-1.78,3-4.63,3a31.14,31.14,0,0,1-4.34-.44c1.22-3.07,2.34-6.3,3.28-9.43,2.18-7.19,3-12.43,3-15.44a8.74,8.74,0,0,0-.61-3.62A14.83,14.83,0,0,1,126.62,60a2.66,2.66,0,0,1,3,2.67c0,2.29-1,5.8-2,10.15,3.46-6.47,9.53-13,14.22-13A4,4,0,0,1,146,63.93a53.65,53.65,0,0,1-1.84,10.82c-.78,2.73-1.67,5.63-1.67,7.63a4.84,4.84,0,0,0,.56,2.4,8.2,8.2,0,0,0,2.73-2C147.58,81,148.53,80,149.15,80c.22,0,.33.11.33.45,0,4.12-6,10.14-9.87,10.14-3,0-5-1.61-5-5.13a31,31,0,0,1,1.11-6.35A105.88,105.88,0,0,0,137.94,68c0-.89-.39-1.23-.84-1.23-1.56,0-4.23,3.52-6.85,7.64" style="fill:#fff"/><path d="M173,81.55a4,4,0,0,1-.33,4.4,10.68,10.68,0,0,1-4.18,3,20.75,20.75,0,0,1-8.81,1.9c-6.52,0-10.26-2.85-10.53-8.59a21.47,21.47,0,0,1,5.57-15.55c3.73-4.46,8.53-6.86,13.49-6.86,4.68,0,6.91,2,6.86,5.8S170.16,74.3,162.64,77c-1.79.61-5.41,2.23-5.47,3.67a5.52,5.52,0,0,0,.62,3.24,5.64,5.64,0,0,0,5.35,2.56,15.93,15.93,0,0,0,9.86-4.9m-15.27-4.69c1-2.06,2.62-2.78,4.68-3.9C166,71,167,69.17,167.54,67.22s-.11-3.62-2.12-3.62c-3,0-5.52,3.84-7.13,10.76,0,0-.23.94-.56,2.5" style="fill:#fff"/><path d="M188.5,49.05a2.53,2.53,0,0,1,2.73,2.79c0-.28-1.67,10.75-4.57,22.24,6.69-9.26,11.65-13.94,15.05-13.94,1.9,0,2.9,1.84,3.18,5.46-3.18,0-6.8,2-11.37,7.25,0,.17-.06.39-.06.61a5.69,5.69,0,0,0,.28,1.62c1.34,4.07,3.24,8.86,7.19,8.86a9.15,9.15,0,0,0,4.8-1.72c.11-.06.17-.12.22-.12s.11.12.11.23a.78.78,0,0,1-.11.39c-1.51,3.84-5.8,7.63-9.25,7.63-3.29,0-6-3.28-9-12.2a93.91,93.91,0,0,0-4.13,9.36c-.78,2-1.78,3-4.63,3a30.69,30.69,0,0,1-4.29-.44C178.86,79,181.48,66.61,183.1,54c0-.22.05-.39.05-.55a5.63,5.63,0,0,0-.67-2.57,12.87,12.87,0,0,1,5.69-1.78Z" style="fill:#fff"/><path d="M22.52,141.53v-1.95c0-.11,0-.17-.06-.11-3.9,4.46-7.8,7.86-13.49,7.86-6.8,0-9-5-9-10.15a18.7,18.7,0,0,1,.17-2.62c.83-6.19,5.13-21.85,5.35-26.31,0-2.17-.84-2.73-1.34-3.68,1.67-1.45,5.35-1.89,7-1.89,2,0,3,.78,3.07,2.5,0,4.46-3.46,16.23-5.07,23.81a38.17,38.17,0,0,0-1.12,7.41c0,3.23,1.34,5.13,4,5.13,2.34,0,5.18-1.56,7.91-4.79,1.56-2.12,2.62-5.36,3.57-8.87,1.84-6.69,4.24-16.66,4.91-21.51a3.67,3.67,0,0,0-.12-1.12c-.33-2.28,2.46-2.56,4.74-2.56,3.68,0,4.46.44,4.46,2.06a22.78,22.78,0,0,1-1.17,4.18c-2.9,9.7-6,21.46-6,28.26a16.79,16.79,0,0,0,.17,2.51c.44,2.68.89,4.46,2.23,5.63a10.54,10.54,0,0,1-6.92,1.84c-3.06-.33-3.34-3.07-3.34-5.63" style="fill:#fff"/><path d="M30.05,154.52a9.33,9.33,0,0,1,1-3.63,5.28,5.28,0,0,0,2.79.9c3.45,0,6.85-2.85,9.42-6.53a4.74,4.74,0,0,0,.5-2.56,22.07,22.07,0,0,0-.22-2.79C42,127.26,40,119.4,38,117.84a12.49,12.49,0,0,1,6.3-2.06c2.06,0,3.45,1.45,3.9,4.57.84,5.68,1.56,12.59,2,18.11,5.52-7.8,9.42-15.33,9.42-19.34a6.78,6.78,0,0,0-1.28-3.57,15.27,15.27,0,0,1,2.06-.16c4.07,0,5.85,1.22,5.85,3.79,0,3.51-5.79,13.26-14.66,24.91-8.19,10.87-13.1,13.72-17.22,13.72-2.4,0-3.9-.9-4.24-2.68a2.32,2.32,0,0,1-.05-.61" style="fill:#fff"/><path d="M94.21,153.24c-.28,0-1.23-.67-2.57-1.29.06,0-3.06-1.39-4.62-1.89-2.85,4.68-7.86,7.3-14,7.3s-12.38-2.67-12.38-5.57c0-2.23,2.07-5.52,10.93-5.52a49.11,49.11,0,0,1,9.31.89,97.21,97.21,0,0,0,3.29-12.82c-4.8,6.8-9.37,9.36-13.16,9.36-4,0-5.51-3.28-5.51-7.69,0-10,7.46-20.34,17.16-20.34a11.41,11.41,0,0,1,5.91,1.56,6,6,0,0,1,3.85-1.4,9.62,9.62,0,0,1,4.46,1.23c-1.45,2.17-2.45,5.29-3.9,11.59-1.06,5.41-2.18,10.54-3,13.88a31.61,31.61,0,0,1-2.35,6.58,24.44,24.44,0,0,1,4.52,2.34c1.62,1.06,2.12,1.62,2.12,1.79m-13.83-4.91a43.89,43.89,0,0,0-8.8-.84c-2.12,0-5.35-.11-5.35,1.4a.89.89,0,0,0,.16.5,9,9,0,0,0,7.3,3.85,6.53,6.53,0,0,0,5-2.12,10.86,10.86,0,0,0,1.67-2.79M87,122.8c-.22-1.45-2.73-3-4.79-3-4.74,0-8.59,7.87-8.59,15.5,0,1.62.73,2.45,1.73,2.45,3.4,0,8.7-7.69,11.65-15" style="fill:#fff"/><path d="M127.77,118.79A16.33,16.33,0,0,1,127,123c-1.5,5.46-3.29,10.92-3.29,14.88a4.77,4.77,0,0,0,.62,2.4c1.56-.34,5.46-4.8,6.07-4.8.23,0,.34.17.34.51,0,4-5.91,10.14-9.93,10.14-3.12,0-5-1.95-5-6a22.53,22.53,0,0,1,.51-4.3c-4.3,7-8.48,10.76-13,10.76-4.13,0-4.85-2.9-4.85-5.74,0-4.35,4-16.89,4-21.07A6.1,6.1,0,0,0,102,117a16.13,16.13,0,0,1,5.47-1.17c2.56,0,3.23,1.39,3.23,3.06a16.77,16.77,0,0,1-.56,3.4c-1.78,7.81-3.62,14.22-3.62,17,0,.72.22,1.45,1.06,1.45,1.56,0,5-3.85,8.08-9.37,2.84-5.18,4.29-9.81,4.29-12.82a4.39,4.39,0,0,0-.39-1.89,16.32,16.32,0,0,1,4.8-.78c1.78.11,3.4.72,3.4,3" style="fill:#fff"/><path d="M143.32,139.13c2.51-1.84,4.46-3.4,5-3.4s0,1.06-1.73,3.85c-2.56,4-8.08,6.8-10.87,6.8-3,0-5-1.62-5-5.07a24.78,24.78,0,0,1,.5-4.69,10.35,10.35,0,0,0,.22-1.44,18,18,0,0,1-3,2c-.22,0,1.06-1.17,2.74-2.62-.06.06.11-.11.5-.45,2.06-8.8,4.51-17.78,7.13-26.47a5.07,5.07,0,0,1,1.9-2.4,4.29,4.29,0,0,1,2.73-.72,8.51,8.51,0,0,1,4.74,1.72,1.56,1.56,0,0,1,.44.84,10.53,10.53,0,0,1,.17,2,12.71,12.71,0,0,1-.11,2,31.15,31.15,0,0,1-2.51,7.86,49.53,49.53,0,0,1-5.74,9.53l-.06.33c-.11.51-.22,1.06-.39,1.62a66.25,66.25,0,0,0-1.39,7.8,4.63,4.63,0,0,0,.56,2.35,7.63,7.63,0,0,0,4.12-1.4m-2.06-13.82a40.55,40.55,0,0,0,3.9-7.08,27.42,27.42,0,0,0,2.4-7.41,13.61,13.61,0,0,0,.05-2.07.53.53,0,0,0-1-.28,5.54,5.54,0,0,0-.45,1c-.94,2.51-1.78,5-2.5,7.53-.9,2.73-1.68,5.57-2.4,8.36" style="fill:#fff"/><path d="M180.89,135.84c.23,0,.28.17.28.51,0,4.06-5.91,10.14-9.87,10.14-3.06,0-5-1.89-5-5.91a37.78,37.78,0,0,1,.28-4.51c-4.18,6.8-8.25,10.31-11.93,10.48h-.61c-4.46,0-6-3.29-6-7.86.22-10.76,8.64-23,17.61-23a8.67,8.67,0,0,1,5.47,1.57,4.68,4.68,0,0,1,3.51-1.45,10.74,10.74,0,0,1,5,1.33c-2.06,3.07-5.46,16.84-5.46,21.13a5.2,5.2,0,0,0,.61,2.34,7.13,7.13,0,0,0,2.73-2c1.73-1.89,2.85-2.79,3.4-2.79m-11.31-12.76a4.5,4.5,0,0,0-4.46-3.24c-4.46,0-8.92,10.71-8.92,17.95.11,2,.67,2.9,1.84,2.9s2.84-1.89,5-5.12a60.21,60.21,0,0,0,6.53-12.49" style="fill:#fff"/><path d="M216.46,134c1.39-6.24,2.11-9.81,2.11-10.43s-.27-.94-.83-.94c-2.51,0-11.15,14-12.49,21.24a4,4,0,0,0,.22,1.28,8.3,8.3,0,0,1-3.9,1.17,5.08,5.08,0,0,1-3.9-1.67c2.56-10.82,4.68-19.07,4.68-21.08,0-.78-.33-1-.89-1-1.5.06-4.4,4.18-7.19,8.31-1.84,2.73-3,5.79-5.74,12.37-.84,2-1.73,3.07-4.57,3.07a25.63,25.63,0,0,1-4.35-.5c4.4-10.87,6.3-21.13,6.3-24.81a9.73,9.73,0,0,0-.67-3.68,15.71,15.71,0,0,1,5.85-1.56,2.74,2.74,0,0,1,3,2.73c0,2.12-.83,5.35-1.84,9.26,5.13-8,10.54-12.16,14-12.16,2.11,0,3.84,1.17,3.84,3.63a27.59,27.59,0,0,1-1.28,8.41c5.13-8.19,10.59-12,13.82-12a3.85,3.85,0,0,1,3.79,4c0,6.13-3.51,14.88-3.51,18.61a4.84,4.84,0,0,0,.56,2.4c1.56-.33,5.46-4.79,6.08-4.79.22,0,.33.17.33.5,0,4-5.91,10.15-9.92,10.15-3,0-4.85-1.57-4.85-5a46.35,46.35,0,0,1,1.34-7.47" style="fill:#fff"/><path d="M261.89,135.84c.22,0,.28.17.28.51,0,4.06-5.91,10.14-9.87,10.14-3.06,0-5-1.89-5-5.91a37.78,37.78,0,0,1,.28-4.51c-4.18,6.8-8.25,10.31-11.93,10.48h-.61c-4.46,0-6-3.29-6-7.86.22-10.76,8.64-23,17.61-23a8.64,8.64,0,0,1,5.46,1.57,4.71,4.71,0,0,1,3.51-1.45,10.78,10.78,0,0,1,5,1.33c-2.06,3.07-5.47,16.84-5.47,21.13a5.06,5.06,0,0,0,.62,2.34,7.13,7.13,0,0,0,2.73-2c1.73-1.89,2.84-2.79,3.4-2.79m-11.32-12.76a4.49,4.49,0,0,0-4.46-3.24c-4.46,0-8.91,10.71-8.91,17.95.11,2,.66,2.9,1.83,2.9s2.85-1.89,5-5.12a60.12,60.12,0,0,0,6.52-12.49" style="fill:#fff"/><path d="M79.63,161.38a4.69,4.69,0,0,1,1.9-2.51,4.46,4.46,0,0,1,2.78-.73,8.53,8.53,0,0,1,5,1.9,9.65,9.65,0,0,0-2.12,3.18c-3.68,10.09-7.13,24.86-7.13,31.27a2.88,2.88,0,0,0,.16,1.06,22,22,0,0,0,6.36.67,23.64,23.64,0,0,0,10.09-1.95c.11-.06.17-.12.22-.12s.11.12.11.34c-.33,7.64-4,7.8-12.87,7.8-3.18,0-5.86,0-9,.06s-3.57-1.51-3.57-3.9c0-4.74,4.24-25.59,8-37.07" style="fill:#fff"/><path d="M116.37,171.36c6.07,0,10.2,3.73,10.2,9.92,0,10.48-8.14,21.07-18.06,21.07-6.13,0-10.2-3.9-10.2-10.37a21.73,21.73,0,0,1,5.4-14.38c3.46-3.85,7.81-6.24,12.66-6.24m-1.67,4.12c-5,0-8.2,10.7-8.2,17.11,0,3.29,1,5.69,3.68,5.69,4.91,0,8.08-10.59,8.08-17,0-3.29-.89-5.8-3.56-5.8" style="fill:#fff"/><path d="M156.84,209c-.28,0-1.23-.67-2.57-1.28.06,0-3.06-1.39-4.62-1.89-2.85,4.68-7.86,7.3-14.05,7.3s-12.38-2.68-12.38-5.58c0-2.23,2.07-5.52,10.93-5.52a49.09,49.09,0,0,1,9.31.9,97.64,97.64,0,0,0,3.29-12.82c-4.8,6.8-9.37,9.36-13.16,9.36-4,0-5.52-3.29-5.52-7.69,0-10,7.47-20.35,17.17-20.35a11.41,11.41,0,0,1,5.91,1.56,6.06,6.06,0,0,1,3.85-1.39,9.72,9.72,0,0,1,4.46,1.22c-1.45,2.18-2.45,5.3-3.9,11.6-1.06,5.41-2.18,10.53-3,13.88a31.61,31.61,0,0,1-2.35,6.58,24.44,24.44,0,0,1,4.52,2.34c1.62,1.06,2.12,1.62,2.12,1.78M143,204.08a43.89,43.89,0,0,0-8.8-.84c-2.12,0-5.35-.11-5.35,1.39a.93.93,0,0,0,.16.51,9,9,0,0,0,7.3,3.84,6.49,6.49,0,0,0,5-2.12,10.77,10.77,0,0,0,1.67-2.78m6.58-25.53c-.22-1.45-2.73-3-4.79-3-4.74,0-8.59,7.86-8.59,15.5,0,1.62.73,2.45,1.73,2.45,3.4,0,8.7-7.69,11.65-15" style="fill:#fff"/><path d="M178.19,171.36c6.07,0,10.2,3.73,10.2,9.92,0,10.48-8.14,21.07-18.06,21.07-6.13,0-10.2-3.9-10.2-10.37a21.69,21.69,0,0,1,5.41-14.38c3.45-3.85,7.8-6.24,12.65-6.24m-1.67,4.12c-5,0-8.2,10.7-8.2,17.11,0,3.29,1,5.69,3.68,5.69,4.91,0,8.08-10.59,8.08-17,0-3.29-.89-5.8-3.56-5.8" style="fill:#fff"/><path d="M254.21,106.27C245.36,46.24,193.54,0,131.08,0,72.63,0,23.49,40.5,10.18,94.91a16.32,16.32,0,0,1,2.59-.23c1.49,0,2.43.46,2.83,1.45a118.9,118.9,0,0,1,233,10.33,7.08,7.08,0,0,1,2.53,1.22,4.65,4.65,0,0,1,3.08-1.41" style="fill:#fff"/><path d="M246.53,152.91c-12.78,51.9-59.67,90.52-115.45,90.52-54.92,0-101.2-37.45-114.81-88.13-.24,0-.48,0-.73,0a9,9,0,0,1-5.41-1.55c13.2,54.56,62.39,95.22,121,95.22,57.43,0,105.85-39.1,120.16-92.06a4.47,4.47,0,0,1-4.71-4" style="fill:#fff"/></g></g></svg>