<svg width="18" height="18" viewBox="0 0 18 18" fill="none" xmlns="http://www.w3.org/2000/svg">
<path fill-rule="evenodd" clip-rule="evenodd" d="M17.2431 10.1475C16.79 10.2245 16.3245 10.2645 15.8496 10.2645C11.2575 10.2645 7.5348 6.51669 7.5348 1.89349C7.5348 1.44002 7.57061 0.994959 7.63955 0.561035C3.71084 1.22845 0.718262 4.66989 0.718262 8.81501C0.718262 13.4382 4.44093 17.186 9.03308 17.186C13.1748 17.186 16.6092 14.1374 17.2431 10.1475Z" fill="white" fill-opacity="0.5"/>
<path fill-rule="evenodd" clip-rule="evenodd" d="M4.09692 9.55459C8.68907 9.55459 12.4117 5.80675 12.4117 1.18356C12.4117 1.17706 12.4117 1.17056 12.4117 1.16406C15.3202 2.46779 17.3479 5.40306 17.3479 8.81513C17.3479 13.4383 13.6252 17.1862 9.03306 17.1862C4.44737 17.1862 0.728713 13.4489 0.718262 8.83463C1.75062 9.29739 2.89394 9.55459 4.09692 9.55459Z" fill="white"/>
</svg>
