<svg xmlns="http://www.w3.org/2000/svg" viewBox="0 0 40.14 70.01"><title>Varlık 6</title><g id="katman_2" data-name="katman 2"><g id="katman_1-2" data-name="katman 1"><path d="M39.43,25.82a22.5,22.5,0,0,1-3,7,17.46,17.46,0,0,1-4.64,4.77,16.53,16.53,0,0,1-5.94,2.51,20,20,0,0,1-6.89.19l-2.8,9.45c-.18.58-.75.91-1.72,1a13.72,13.72,0,0,1-4-.53c-1.07-.27-2-.53-2.7-.76a7.84,7.84,0,0,1-1.67-.71,2,2,0,0,1-.79-.77,1.56,1.56,0,0,1-.12-1L7.64,35.27a11.68,11.68,0,0,1,.79-2.51,3.42,3.42,0,0,1,1.1-1.39,2.78,2.78,0,0,1,1.5-.48,7,7,0,0,1,1.92.25l.68.17a11.44,11.44,0,0,0,4.69.29A9.24,9.24,0,0,0,22,30.18a8.79,8.79,0,0,0,2.6-2.78,14.17,14.17,0,0,0,1.55-3.83,13.68,13.68,0,0,0,.43-4.47,9.39,9.39,0,0,0-1.16-3.88,9.14,9.14,0,0,0-2.83-3,14,14,0,0,0-4.59-2,18.56,18.56,0,0,0-4.52-.62,23,23,0,0,0-3.56.26c-1,.16-1.86.33-2.54.5a3.52,3.52,0,0,1-1.52.14,1.12,1.12,0,0,1-.58-.38A1.68,1.68,0,0,1,5,9.2a9,9,0,0,1,.1-1.75,25.93,25.93,0,0,1,.57-2.77,16,16,0,0,1,.77-2.46,2.4,2.4,0,0,1,1-1.11A7.24,7.24,0,0,1,9.53.42,23.08,23.08,0,0,1,13.12,0a39.11,39.11,0,0,1,4.5.12,30.07,30.07,0,0,1,5,.84A28.29,28.29,0,0,1,32.1,5.06a19.2,19.2,0,0,1,5.66,6,17.32,17.32,0,0,1,2.29,7.14,22.93,22.93,0,0,1-.62,7.65m-25,38.32a16.18,16.18,0,0,1-1.17,3.3,4.69,4.69,0,0,1-1.68,1.92A4.78,4.78,0,0,1,9.08,70a12.92,12.92,0,0,1-3.39-.46A13.43,13.43,0,0,1,2.4,68.33,4.72,4.72,0,0,1,.57,66.6,4.69,4.69,0,0,1,0,64.11a16.32,16.32,0,0,1,.53-3.46,16.45,16.45,0,0,1,1.19-3.37,4.93,4.93,0,0,1,1.69-2,4.75,4.75,0,0,1,2.44-.69,13.29,13.29,0,0,1,3.47.49,13,13,0,0,1,3.21,1.19,4.66,4.66,0,0,1,1.85,1.77,5,5,0,0,1,.56,2.54,16.52,16.52,0,0,1-.55,3.53" style="fill:#fff"/></g></g></svg>