<svg width="14" height="15" viewBox="0 0 14 15" fill="none" xmlns="http://www.w3.org/2000/svg">
<path d="M12.5857 13.778L11.8638 9.11035L7.09375 12.584L11.2997 14.7144C11.9488 15.0432 12.6971 14.4984 12.5857 13.778Z" fill="white" fill-opacity="0.5"/>
<path fill-rule="evenodd" clip-rule="evenodd" d="M9.43483 2.3059C8.45703 0.398034 5.73017 0.398034 4.75236 2.3059C4.37082 3.05036 3.65754 3.56906 2.83178 3.70295C0.716336 4.04595 -0.122765 6.64223 1.38586 8.16433C1.9747 8.75844 2.24767 9.60086 2.11983 10.4275C1.79256 12.5438 3.995 14.1535 5.90531 13.1859C6.65232 12.8075 7.53488 12.8075 8.28189 13.1859C10.1922 14.1535 12.3946 12.5438 12.0674 10.4275C11.9395 9.60086 12.2125 8.75844 12.8013 8.16433C14.31 6.64223 13.4709 4.04595 11.3554 3.70295C10.5297 3.56906 9.81638 3.05036 9.43483 2.3059ZM7.09381 12.5841L11.8639 9.11051C12.2763 11.777 9.50083 13.8034 7.09381 12.5841Z" fill="white"/>
</svg>
