<svg width="16" height="18" viewBox="0 0 16 18" fill="none" xmlns="http://www.w3.org/2000/svg">
<path fill-rule="evenodd" clip-rule="evenodd" d="M7.85348 0.830846C7.42628 0.853303 7.03247 1.06827 6.78318 1.4151L0.573497 10.0542C0.120276 10.6848 0.265235 11.5625 0.89727 12.0146L6.78276 16.225C7.41479 16.6771 8.29457 16.5325 8.74779 15.902L14.9575 7.26283C15.2068 6.916 15.2845 6.47493 15.1688 6.06407L13.9142 1.61027C13.736 0.977697 13.1421 0.55284 12.4844 0.587414L7.85348 0.830846ZM9.70164 5.96488C10.4541 6.50315 11.5014 6.33099 12.041 5.58035C12.5805 4.82972 12.4079 3.78485 11.6555 3.24658C10.9031 2.70831 9.85574 2.88047 9.31619 3.63111C8.77665 4.38175 8.94921 5.42662 9.70164 5.96488Z" fill="white"/>
<path fill-rule="evenodd" clip-rule="evenodd" d="M7.54299 1.92293C7.13033 2.03545 6.79132 2.329 6.62161 2.72076L2.39423 12.4792C2.0857 13.1914 2.41432 14.0183 3.12824 14.3261L9.77623 17.1924C10.4901 17.5002 11.319 17.1724 11.6276 16.4601L15.8549 6.70173C16.0246 6.30997 16.0066 5.86249 15.806 5.48555L13.6313 1.39951C13.3224 0.819171 12.6516 0.529941 12.0162 0.703181L7.54299 1.92293ZM10.4427 6.54781C11.2926 6.91425 12.2793 6.52396 12.6466 5.67607C13.0139 4.82818 12.6227 3.84377 11.7728 3.47734C10.9229 3.1109 9.93615 3.50119 9.56884 4.34908C9.20153 5.19697 9.59275 6.18138 10.4427 6.54781Z" fill="white" fill-opacity="0.5"/>
</svg>
