<svg xmlns="http://www.w3.org/2000/svg" viewBox="0 0 61.63 73.84"><title>Varlık 4</title><g id="katman_2" data-name="katman 2"><g id="katman_1-2" data-name="katman 1"><path d="M49.15,18.33c0,.32,0,.63,0,1s0,.62-.07.93-.1.92-.18,1.37-.2,1-.33,1.46a18.82,18.82,0,0,1-.92,2.68l-.17.36c-.2.43-.41.85-.64,1.26l-.21.37a18.83,18.83,0,0,1-3.11,3.93l-.35.32-.62.54-.42.34c-.31.24-.63.47-1,.7l-.14.09c-.43.29-.88.57-1.33.82s-.84.44-1.27.64l-.08,0a20.17,20.17,0,0,1-2.67,1l-.58.15a18.89,18.89,0,0,1-2.84.45l-.94.05h-.95c-.32,0-.63,0-.94-.05a19.2,19.2,0,0,1-2.85-.43L26,36.11a18.8,18.8,0,0,1-2.67-1l-.08,0c-.39-.18-.76-.37-1.14-.57s-1-.56-1.47-.88l-.14-.1q-.49-.33-1-.69l-.42-.34L18.47,32c-.22-.21-.45-.41-.66-.63A18.66,18.66,0,0,1,15,27.78l-.21-.37c-.24-.41-.45-.82-.65-1.25-.06-.12-.11-.24-.17-.37A18.76,18.76,0,0,1,13,23.12c-.13-.48-.24-1-.33-1.45s-.14-.92-.19-1.38c0-.31-.06-.62-.07-.93s0-.63,0-.95,0-.63,0-.94,0-.39,0-.58h0c0-.12,0-.24.05-.36s0-.23,0-.34c0-.35.1-.69.16-1A14.62,14.62,0,0,1,13,13.7,17.56,17.56,0,0,1,13.93,11c0-.06.05-.13.08-.19a1.42,1.42,0,0,0,.08-.18c.2-.43.42-.85.65-1.26A3.35,3.35,0,0,1,15,9a18.2,18.2,0,0,1,3.11-3.93l.35-.33L19,4.24l.41-.33c.31-.25.63-.48,1-.7l.14-.1a19.58,19.58,0,0,1,2.61-1.46l.08,0a17.18,17.18,0,0,1,2.66-1,5.66,5.66,0,0,1,.59-.15A17.7,17.7,0,0,1,29.32.06c.31,0,.62,0,.94,0h.95c.31,0,.62,0,.94,0A17.69,17.69,0,0,1,35,.49c.2,0,.39.09.59.15a17.11,17.11,0,0,1,2.66.94l.08,0a18.3,18.3,0,0,1,2.61,1.44l.15.1c.32.22.64.46,1,.7l.42.33.62.54.34.32A18.34,18.34,0,0,1,46.56,9l.21.36c.23.41.45.83.65,1.26l.16.36a17.6,17.6,0,0,1,.94,2.67c.13.48.24,1,.33,1.46s.15.91.2,1.37c0,.15,0,.29,0,.44l0,.5c0,.31,0,.62,0,.94" style="fill:#fff"/><path d="M61.58,54.26l.05,19c0,.4-.35.42-.72.42l-60,.14c-.37,0-.84,0-.84-.42l0-19c0-.31.05-.61.06-.92A18.65,18.65,0,0,1,4.94,41.75l.26-.27a17.9,17.9,0,0,1,4.9-3.62l.33-.16c.51-.24,1-.45,1.55-.64l.35-.12c.48-.16,1-.3,1.44-.41.6.57,1.23,1.11,1.87,1.61A25.45,25.45,0,0,0,21,41.35c.36.16.72.31,1.09.45A24.34,24.34,0,0,0,26.42,43a24.71,24.71,0,0,0,4.39.39,23.78,23.78,0,0,0,5-.54,3.56,3.56,0,0,1,.61-.14h.91a7.11,7.11,0,0,0,2.35-.91c.31-.12.61-.4.92-.54a21.08,21.08,0,0,0,4.22-2.57.83.83,0,0,0,.44-.22,24.18,24.18,0,0,0,2.49-2.07A18.18,18.18,0,0,1,61.48,53.32c0,.3.1.63.1.94" style="fill:#fff"/></g></g></svg>