<svg xmlns="http://www.w3.org/2000/svg" viewBox="0 0 68.65 67.08"><title>Varlık 6</title><g id="b672e0d1-0fa6-4044-a44f-16a6f56e2b3c" data-name="katman 2"><g id="b651ce19-84f3-4028-a9d8-9ade6a3a33ea" data-name="katman 1"><path d="M68.65,26.91C68.65,12.05,53.29,0,34.33,0S0,12.05,0,26.91c0,14.3,14.24,26,32.2,26.85L46.88,67.08,39.22,53.54c16.64-1.85,29.43-13.07,29.43-26.63M21.38,30.73a4,4,0,1,1,4-4,4,4,0,0,1-4,4m13,0a4,4,0,1,1,4-4,4,4,0,0,1-4,4m12.94,0a4,4,0,1,1,4-4,4,4,0,0,1-4,4" style="fill:#fff"/></g></g></svg>