<svg xmlns="http://www.w3.org/2000/svg" viewBox="0 0 74.44 75.14"><title>Varlık 1</title><g id="af49587e-23bc-43a0-a460-d3d6e63d8625" data-name="katman 2"><g id="ab44446b-2243-4bdd-8475-8009aa519dab" data-name="katman 1"><path d="M16.13,22.8l6.58-6.47c.64.61,23.75,23.63,34.6,34.5a14.08,14.08,0,0,1,2.1,2.41,4.55,4.55,0,0,1-6.13,6.38,8.42,8.42,0,0,1-1.83-1.44c-11.48-11.47-35-35-35.32-35.38" style="fill:#fff"/><path d="M25.9,5.64,5.73,25.77a44.49,44.49,0,0,1-4.37-5.1C-.87,17.18-.3,13,2.66,9.69c1.94-2.15,4-4.18,6.13-6.2C13.4-1,18.8-1.24,23.45,3.17c.91.86,2.45,2.47,2.45,2.47" style="fill:#fff"/><path d="M9.47,29.34l3.14-3.44c.92.9,1.56,1.58,2.24,2.25L47.4,60.7c.61.62,1.74,1.56,1.94,2.31a2.45,2.45,0,0,1-.57,2.45,2.75,2.75,0,0,1-2.25.57c-.57-.09-1.4-1-1.88-1.48q-17.1-17.1-34.19-34.21l-1-1" style="fill:#fff"/><path d="M25.74,13.06s2.12-2.31,3.14-3.44c.92.9,1.57,1.58,2.24,2.26Q47.41,28.14,63.67,44.43c.62.61,1.74,1.56,2,2.3a2.47,2.47,0,0,1-.57,2.45,2.76,2.76,0,0,1-2.25.58c-.57-.1-1.41-1-1.88-1.49Q43.8,31.19,26.73,14.06c-.27-.26-1-1-1-1" style="fill:#fff"/><path d="M52.07,69.58c.79-3.14,2.24-4.36,5.27-4.71,3.91-.46,6.13-3.37,7-8.2a4.27,4.27,0,0,1,2.44-3.13l2-.91c1.88,7.47,3.7,14.73,5.65,22.51L52.07,69.58" style="fill:#fff"/></g></g></svg>