<svg xmlns="http://www.w3.org/2000/svg" viewBox="0 0 87.74 68.88"><title>Varlık 3</title><g id="ff62e6f0-ce21-41e7-88c8-be05791c84b3" data-name="katman 2"><g id="e25586f6-a1ef-45d7-9b3b-f754f60249c3" data-name="katman 1"><path d="M58.64,34.44A24.19,24.19,0,1,1,55.17,22l9-4.92a34.77,34.77,0,1,0,1.71,3.34L56.6,24.72a24.07,24.07,0,0,1,2,9.72" style="fill:#fff"/><path d="M42.59,34.44A8.17,8.17,0,1,1,41,29.67l7.86-4.3a16.71,16.71,0,1,0,1.26,2.38l-8.11,3.8a8.15,8.15,0,0,1,.54,2.89" style="fill:#fff"/><path d="M87.3,14.43l-4.42-3a2.43,2.43,0,0,0-1-2.6l.52-5.48c.07-.75-.43-1.11-1.12-.79L69.69,7.78A3,3,0,0,0,68.18,9.7l-1.12,5.75L64.16,17a33.86,33.86,0,0,1,1.71,3.34l2.59-1.22,4.4,2.61a2.79,2.79,0,0,0,2.41.08l11.93-6a.74.74,0,0,0,.1-1.39" style="fill:#fff"/><path d="M55.17,22a25,25,0,0,1,1.43,2.77l9.27-4.35A33.86,33.86,0,0,0,64.16,17Z" style="fill:#fff"/><path d="M50.16,27.75l6.44-3A25,25,0,0,0,55.17,22L48.9,25.37a16.4,16.4,0,0,1,1.26,2.38" style="fill:#fff"/><path d="M41,29.67a8.17,8.17,0,0,1,1,1.89l8.11-3.81a16.4,16.4,0,0,0-1.26-2.38Z" style="fill:#fff"/><path d="M34,34.42c.6,1.19,1.37.3,2.55-.3l5.46-2.56a8.17,8.17,0,0,0-1-1.89l-5.25,2.87c-1.19.6-2.35.69-1.75,1.88" style="fill:#fff"/></g></g></svg>