<svg xmlns="http://www.w3.org/2000/svg" viewBox="0 0 73.84 77.31"><title>Varlık 5</title><g id="e557a898-9a84-452b-83bc-4622777dac45" data-name="katman 2"><g id="ec49c19a-e66a-4ada-8b4d-a5c5dbc350ad" data-name="katman 1"><path d="M58.82,54.72C59.9,56,70,66.13,71.67,68.2a5.19,5.19,0,0,1,.72,5.91A5.73,5.73,0,0,1,67,77.31a6.12,6.12,0,0,1-4.36-2.23C60.2,72.18,53.51,65.35,51,62.45c-.16-.19-.34-.36-.57-.62-.25.45-.48.81-.66,1.2q-2.7,5.53-5.38,11.08a2.36,2.36,0,0,1-3.32,1.27,3.92,3.92,0,0,1-2.35-2.76q-2.25-8-4.51-16.07-3.48-12.37-7-24.73a5.75,5.75,0,0,1-.12-3.41c.62-1.87,2.4-2.72,4.57-2a48.12,48.12,0,0,1,4.71,2.08L71.21,44.84a4.1,4.1,0,0,1,2.53,2.8,2.4,2.4,0,0,1-1.8,3.14L60.29,54.22c-.46.13-.91.31-1.47.5" style="fill:#fff"/><path d="M46.06,25.44a2.94,2.94,0,0,1,2.14-2.89c3.08-.94,6.18-1.85,9.31-2.65A2.85,2.85,0,0,1,61.19,22a2.89,2.89,0,0,1-2.08,3.67c-3,.94-6,1.83-9.09,2.6a3,3,0,0,1-4-2.87" style="fill:#fff"/><path d="M11.77,33c1.93,0,3.07.84,3.41,2.2a2.81,2.81,0,0,1-1.56,3.41A28.9,28.9,0,0,1,9.9,39.78c-2,.59-4.08,1.21-6.15,1.67A2.86,2.86,0,0,1,.1,39.25a2.92,2.92,0,0,1,2.17-3.62c2.35-.74,4.73-1.39,7.1-2.06.93-.26,1.87-.49,2.4-.62" style="fill:#fff"/><path d="M40.09,17a3,3,0,0,1-2.72-4.57q2.31-4.21,4.69-8.38A2.71,2.71,0,0,1,45.15,2.6a2.94,2.94,0,0,1,2.5,2.48,3.23,3.23,0,0,1-.32,1.76Q45,11.22,42.51,15.51A2.72,2.72,0,0,1,40.09,17" style="fill:#fff"/><path d="M16.94,21.25a3,3,0,0,1-2.1,3.07A3.65,3.65,0,0,1,12.49,24Q8.18,21.73,4,19.27a3,3,0,0,1-1.07-4,2.91,2.91,0,0,1,4-1.18c2.92,1.55,5.81,3.18,8.68,4.82a2.52,2.52,0,0,1,1.33,2.38" style="fill:#fff"/><path d="M13.59,55.74a7.8,7.8,0,0,1,.47-1.36c1.56-2.83,3.12-5.66,4.72-8.47a3,3,0,0,1,4-1.15,2.87,2.87,0,0,1,1.23,4q-2.34,4.29-4.75,8.54a2.9,2.9,0,0,1-3.43,1.39,3.22,3.22,0,0,1-2.26-3" style="fill:#fff"/><path d="M25.3,15.25a2.69,2.69,0,0,1-2.67-1.94c-1-3.19-1.91-6.38-2.74-9.6A2.87,2.87,0,0,1,22.05.1a2.94,2.94,0,0,1,3.6,2.1c.93,3.06,1.82,6.14,2.63,9.23a2.9,2.9,0,0,1-3,3.82" style="fill:#fff"/></g></g></svg>