<svg xmlns="http://www.w3.org/2000/svg" viewBox="0 0 75.06 62.92"><title>Varlık 2</title><g id="a3a96636-8cbe-4cfa-81cc-7d8da5419e16" data-name="katman 2"><g id="a693c429-2db8-464c-93e2-7ef26c8c318a" data-name="katman 1"><path d="M57,21.6c0,.14-.07.28-.11.41a2.18,2.18,0,0,1-3.54,1c-.72-.64-1.42-1.32-2.18-1.92a22.42,22.42,0,0,0-28.1.51c-.54.45-1,1-1.57,1.42A2.17,2.17,0,0,1,18,22.22c-.08-.2-.12-.41-.19-.62v-.49a.5.5,0,0,0,.05-.13,2.14,2.14,0,0,1,.6-1.15,26.7,26.7,0,0,1,7.74-5.4,26.27,26.27,0,0,1,9.41-2.37l.91-.08h1.71a1,1,0,0,0,.24,0,25.54,25.54,0,0,1,4.77.62,26.64,26.64,0,0,1,13,7.12A2.21,2.21,0,0,1,56.91,21a.18.18,0,0,0,0,.09Z" style="fill:#fff"/><path d="M37,19.72a20.19,20.19,0,0,1,14.49,5.84,2.08,2.08,0,0,1,.6,2.19,2,2,0,0,1-1.62,1.52,2.1,2.1,0,0,1-2-.61A16.08,16.08,0,0,0,46.2,26.8,15.56,15.56,0,0,0,40,24.32a15.23,15.23,0,0,0-4.1-.15,15.54,15.54,0,0,0-9.4,4.32,2.77,2.77,0,0,1-1.26.78,2.21,2.21,0,0,1-2.38-1,2.14,2.14,0,0,1,.29-2.57,18.85,18.85,0,0,1,3.71-3A19.35,19.35,0,0,1,34.47,20c1-.13,2-.18,2.56-.23" style="fill:#fff"/><path d="M37.67,27.64A12,12,0,0,1,46,31.21a2.17,2.17,0,0,1-3,3.14,7.93,7.93,0,0,0-4-2.17,7.75,7.75,0,0,0-7,1.94,2.75,2.75,0,0,1-1.26.77,2.19,2.19,0,0,1-2.37-1,2.16,2.16,0,0,1,.27-2.57,11.85,11.85,0,0,1,3-2.25,12.74,12.74,0,0,1,6-1.42" style="fill:#fff"/><path d="M40,37.52A2.58,2.58,0,1,1,37.39,35,2.58,2.58,0,0,1,40,37.52" style="fill:#fff"/><path d="M44.83,60.92H29.94a3.31,3.31,0,0,1-3.31-3.3V52.49a3.31,3.31,0,0,1,3.31-3.31H44.83a3.31,3.31,0,0,1,3.31,3.31v5.13a3.31,3.31,0,0,1-3.31,3.3" style="fill:#fff"/><path d="M67.89,62.92h-61a2.7,2.7,0,0,1,0-5.4h61a2.7,2.7,0,1,1,0,5.4" style="fill:#fff"/><path d="M75.06,4.44A4.44,4.44,0,0,0,70.62,0H4.44A4.44,4.44,0,0,0,0,4.44V45.35a4.44,4.44,0,0,0,4.44,4.44H70.62a4.44,4.44,0,0,0,4.44-4.44ZM71.52,42.06a4.44,4.44,0,0,1-4.44,4.44H8.73A4.43,4.43,0,0,1,4.3,42.06V8.23A4.43,4.43,0,0,1,8.73,3.79H67.08a4.44,4.44,0,0,1,4.44,4.44Z" style="fill:#fff"/></g></g></svg>